<svg width="8" height="9" viewBox="0 0 8 9" fill="none" xmlns="http://www.w3.org/2000/svg">
<path d="M2.79393 3.14746C2.80827 3.10415 2.83589 3.06646 2.87287 3.03975C2.90986 3.01304 2.95432 2.99866 2.99994 2.99866C3.04556 2.99866 3.09002 3.01304 3.127 3.03975C3.16398 3.06646 3.1916 3.10415 3.20595 3.14746L3.59296 4.30951C3.76597 4.82753 4.17198 5.23355 4.69001 5.40655L5.85206 5.79357C5.89536 5.80791 5.93305 5.83553 5.95976 5.87252C5.98647 5.9095 6.00085 5.95396 6.00085 5.99958C6.00085 6.0452 5.98647 6.08966 5.95976 6.12664C5.93305 6.16362 5.89536 6.19125 5.85206 6.20559L4.69001 6.5926C4.43452 6.67772 4.20237 6.82118 4.01195 7.01159C3.82153 7.20201 3.67808 7.43416 3.59296 7.68965L3.20595 8.8517C3.1916 8.895 3.16398 8.93269 3.127 8.9594C3.09002 8.98611 3.04556 9.00049 2.99994 9.00049C2.95432 9.00049 2.90986 8.98611 2.87287 8.9594C2.83589 8.93269 2.80827 8.895 2.79393 8.8517L2.40691 7.68965C2.32179 7.43416 2.17834 7.20201 1.98792 7.01159C1.7975 6.82118 1.56535 6.67772 1.30987 6.5926L0.147817 6.20559C0.104509 6.19125 0.066823 6.16362 0.0401118 6.12664C0.0134007 6.08966 -0.000976563 6.0452 -0.000976562 5.99958C-0.000976563 5.95396 0.0134007 5.9095 0.0401118 5.87252C0.066823 5.83553 0.104509 5.80791 0.147817 5.79357L1.30987 5.40655C1.56535 5.32143 1.7975 5.17798 1.98792 4.98756C2.17834 4.79714 2.32179 4.56499 2.40691 4.30951L2.79393 3.14746ZM5.86306 0.0983307C5.87293 0.0698558 5.89143 0.0451644 5.91598 0.0276893C5.94054 0.0102143 5.96992 0.000823975 6.00006 0.000823975C6.0302 0.000823975 6.05959 0.0102143 6.08414 0.0276893C6.1087 0.0451644 6.1272 0.0698558 6.13707 0.0983307L6.39508 0.872363C6.51008 1.21838 6.78109 1.48939 7.12711 1.60439L7.90114 1.8624C7.92962 1.87228 7.95431 1.89078 7.97178 1.91533C7.98926 1.93988 7.99865 1.96927 7.99865 1.99941C7.99865 2.02955 7.98926 2.05894 7.97178 2.08349C7.95431 2.10804 7.92962 2.12654 7.90114 2.13642L7.12711 2.39443C6.95659 2.45115 6.80164 2.54685 6.67457 2.67392C6.5475 2.80099 6.4518 2.95594 6.39508 3.12646L6.13707 3.90049C6.1272 3.92896 6.1087 3.95366 6.08414 3.97113C6.05959 3.98861 6.0302 3.998 6.00006 3.998C5.96992 3.998 5.94054 3.98861 5.91598 3.97113C5.89143 3.95366 5.87293 3.92896 5.86306 3.90049L5.60504 3.12646C5.54832 2.95594 5.45262 2.80099 5.32555 2.67392C5.19848 2.54685 5.04353 2.45115 4.87301 2.39443L4.09898 2.13642C4.07051 2.12654 4.04582 2.10804 4.02834 2.08349C4.01087 2.05894 4.00148 2.02955 4.00148 1.99941C4.00148 1.96927 4.01087 1.93988 4.02834 1.91533C4.04582 1.89078 4.07051 1.87228 4.09898 1.8624L4.87301 1.60439C5.21903 1.48939 5.49004 1.21838 5.60504 0.872363L5.86306 0.0993307V0.0983307Z" fill="black"/>
</svg>
